<svg width="1200" height="675" viewBox="0 0 1200 675" xmlns="http://www.w3.org/2000/svg">
  <defs>
    <linearGradient id="postBg" x1="0%" y1="0%" x2="100%" y2="100%">
      <stop offset="0%" style="stop-color:#0a0a0f" />
      <stop offset="100%" style="stop-color:#1a0b2e" />
    </linearGradient>
    <linearGradient id="logoGrad" x1="0%" y1="0%" x2="0%" y2="100%">
      <stop offset="0%" style="stop-color:#ff6b00" />
      <stop offset="100%" style="stop-color:#9945ff" />
    </linearGradient>
  </defs>

  <!-- Background -->
  <rect width="1200" height="675" fill="url(#postBg)"/>
  
  <!-- Logo Centered & Faded -->
  <g transform="translate(350, 80) scale(1)" opacity="0.1">
       <g transform="rotate(45, 256, 256)">
          <path d="M256,64 C256,64 384,200 384,320 C384,400 350,448 350,448 C350,448 320,350 256,350 C192,350 162,448 162,448 C162,448 128,400 128,320 C128,200 256,64 256,64 Z" 
                fill="url(#logoGrad)"/>
      </g>
  </g>

  <!-- Text -->
  <text x="600" y="300" text-anchor="middle" font-family="Arial, sans-serif" font-weight="900" font-size="80" fill="white">WE ARE LIVE</text>
  <text x="600" y="380" text-anchor="middle" font-family="Arial, sans-serif" font-weight="700" font-size="40" fill="#ff6b00" letter-spacing="2">DEPLOY ON BITCOIN L1</text>
  
  <!-- Button-like shape -->
  <rect x="500" y="450" width="200" height="60" rx="30" fill="white"/>
  <text x="600" y="492" text-anchor="middle" font-family="Arial, sans-serif" font-weight="bold" font-size="24" fill="black">LAUNCH APP ➜</text>

</svg>
